<svg width="100%" height="100%" viewBox="0 0 64 64" version="1.1" xmlns="http://www.w3.org/2000/svg" xmlns:xlink="http://www.w3.org/1999/xlink" xml:space="preserve" xmlns:serif="http://www.serif.com/" style="fill-rule:evenodd;clip-rule:evenodd;stroke-linejoin:round;stroke-miterlimit:2;">
    <g transform="matrix(1.02729,0,0,1.02729,-0.868638,-0.874278)">
        <path d="M49.732,1.383C58.803,1.432 58.983,63.151 50.228,62.695C48.235,62.592 31.704,47.675 29.553,47.675L14.518,47.675C10.369,47.675 7,44.307 7,40.158L7,23.471C7,19.322 10.369,15.954 14.518,15.954L29.553,15.954C31.092,15.954 48.299,1.375 49.732,1.383Z" style="fill:rgb(94,59,0);"/>
    </g>
    <g transform="matrix(0.966435,0,0,0.966435,1.05074,1.07545)">
        <path d="M50.588,62.679C50.47,62.696 50.35,62.702 50.228,62.695C48.235,62.592 31.704,47.675 29.553,47.675L14.518,47.675C10.369,47.675 7,44.307 7,40.158L7,23.471C7,19.322 10.369,15.954 14.518,15.954L29.553,15.954C30.882,15.954 43.888,5.088 48.34,2.123C46.885,5.324 44.777,11.67 42.291,24.225C38.572,43.013 46.724,57.226 50.588,62.679ZM50.59,1.58C58.168,5.093 58.665,54.51 52.046,61.802C49.191,56.706 43.631,45.556 43.202,35.318C42.731,24.087 48.434,7.433 50.59,1.58Z" style="fill:rgb(238,216,0);"/>
    </g>
</svg>
